<?xml version="1.0" encoding="UTF-8" standalone="no"?>
<!-- Created with Inkscape (http://www.inkscape.org/) -->

<svg
   xmlns:dc="http://purl.org/dc/elements/1.1/"
   xmlns:cc="http://creativecommons.org/ns#"
   xmlns:rdf="http://www.w3.org/1999/02/22-rdf-syntax-ns#"
   xmlns:svg="http://www.w3.org/2000/svg"
   xmlns="http://www.w3.org/2000/svg"
   xmlns:sodipodi="http://sodipodi.sourceforge.net/DTD/sodipodi-0.dtd"
   xmlns:inkscape="http://www.inkscape.org/namespaces/inkscape"
   width="100.0625"
   height="102.875"
   id="svg3036"
   version="1.1"
   inkscape:version="0.48.4 r9939"
   sodipodi:docname="Neues Dokument 2">
  <defs
     id="defs3038" />
  <sodipodi:namedview
     id="base"
     pagecolor="#ffffff"
     bordercolor="#666666"
     borderopacity="1.0"
     inkscape:pageopacity="0.0"
     inkscape:pageshadow="2"
     inkscape:zoom="1.979899"
     inkscape:cx="108.36288"
     inkscape:cy="36.228589"
     inkscape:document-units="px"
     inkscape:current-layer="layer1"
     showgrid="false"
     fit-margin-top="0"
     fit-margin-left="0"
     fit-margin-right="0"
     fit-margin-bottom="0"
     inkscape:window-width="1920"
     inkscape:window-height="1018"
     inkscape:window-x="-8"
     inkscape:window-y="-8"
     inkscape:window-maximized="1" />
  <metadata
     id="metadata3041">
    <rdf:RDF>
      <cc:Work
         rdf:about="">
        <dc:format>image/svg+xml</dc:format>
        <dc:type
           rdf:resource="http://purl.org/dc/dcmitype/StillImage" />
        <dc:title></dc:title>
      </cc:Work>
    </rdf:RDF>
  </metadata>
  <g
     inkscape:label="Ebene 1"
     inkscape:groupmode="layer"
     id="layer1"
     transform="translate(-344.125,-326.6875)">
    <path
       style="fill:#ff6600;fill-opacity:1;stroke:none"
       d="m 344.125,326.6875 0,102.875 10.0625,0 c 0.93953,-1.90585 1.91818,-4.00107 2.90625,-6.34375 l 41.1875,-96.34375 3,0 40.75,97.375 c 0.73493,1.75359 1.45164,3.36601 2.15625,4.84375 l 0,-102.40625 -100.0625,0 z m 50.96875,27.03125 -20.40625,47.3125 40.25,0 -19.84375,-47.3125 z m -23.0625,53.6875 -7.9375,18.5 c -0.56981,1.32397 -1.06485,2.52747 -1.46875,3.65625 l 63.84375,0 c -0.52989,-1.58515 -1.20444,-3.34873 -2.03125,-5.3125 l -7.09375,-16.84375 -45.3125,0 z"
       id="rect3930"
       inkscape:connector-curvature="0" />
  </g>
</svg>
