<?xml version="1.0" encoding="UTF-8" standalone="no"?>
<svg
   xmlns:dc="http://purl.org/dc/elements/1.1/"
   xmlns:cc="http://creativecommons.org/ns#"
   xmlns:rdf="http://www.w3.org/1999/02/22-rdf-syntax-ns#"
   xmlns:svg="http://www.w3.org/2000/svg"
   xmlns="http://www.w3.org/2000/svg"
   xmlns:sodipodi="http://sodipodi.sourceforge.net/DTD/sodipodi-0.dtd"
   xmlns:inkscape="http://www.inkscape.org/namespaces/inkscape"
   version="1.1"
   x="0px"
   y="0px"
   viewBox="0 0 99.884789 91.537112"
   enable-background="new 0 0 100 91.46"
   xml:space="preserve"
   id="svg2"
   inkscape:version="0.91 r13725"
   sodipodi:docname="heart.svg"
   width="99.884789"
   height="91.537109"><metadata
     id="metadata16"><rdf:RDF><cc:Work
         rdf:about=""><dc:format>image/svg+xml</dc:format><dc:type
           rdf:resource="http://purl.org/dc/dcmitype/StillImage" /><dc:title></dc:title></cc:Work></rdf:RDF></metadata><defs
     id="defs14" /><sodipodi:namedview
     pagecolor="#ffffff"
     bordercolor="#666666"
     borderopacity="1"
     objecttolerance="10"
     gridtolerance="10"
     guidetolerance="10"
     inkscape:pageopacity="0"
     inkscape:pageshadow="2"
     inkscape:window-width="1920"
     inkscape:window-height="1017"
     id="namedview12"
     showgrid="false"
     showguides="true"
     inkscape:guide-bbox="true"
     inkscape:zoom="2.8284271"
     inkscape:cx="-35.357903"
     inkscape:cy="68.293578"
     inkscape:window-x="-8"
     inkscape:window-y="-8"
     inkscape:window-maximized="1"
     inkscape:current-layer="svg2"
     fit-margin-top="0"
     fit-margin-left="0"
     fit-margin-right="0"
     fit-margin-bottom="0"><sodipodi:guide
       position="49.881811,92.108813"
       orientation="1,0"
       id="guide4155" /><sodipodi:guide
       position="51.417559,11.476539"
       orientation="0,1"
       id="guide4157" /></sodipodi:namedview><path
     style="opacity:1;fill:#f94c00;fill-opacity:1;stroke:none;stroke-width:10;stroke-linecap:butt;stroke-linejoin:miter;stroke-miterlimit:4;stroke-dasharray:none;stroke-opacity:1"
     d="M 29.115238,2.0997627e-8 C 13.03554,4.75021e-4 4.8e-4,13.035531 0,29.115234 0.004,36.771501 3.0232,44.118151 8.4043,49.564453 l -0.0137,0 41.55078,41.972653 0.002,0 41.550781,-41.972653 -0.01367,0 C 96.861591,44.118151 99.880988,36.771501 99.884788,29.115234 99.884314,13.035531 86.849258,4.75021e-4 70.769555,2.0997627e-8 62.604693,-3.06979e-4 55.230656,3.365822 49.943383,8.779297 c -3.26e-4,-3.34e-4 -0.0016,3.33e-4 -0.002,0 C 44.654111,3.365822 37.280073,-3.06979e-4 29.115211,2.0997625e-8 Z M 49.943363,49.423828 c 0.04504,0.04626 0.08735,0.0947 0.132812,0.140625 l -0.132812,0 -0.002,0 -0.132812,0 c 0.04578,-0.04624 0.08937,-0.09407 0.134766,-0.140625 z"
     id="path4144"
     inkscape:connector-curvature="0" /></svg>