<?xml version="1.0" encoding="UTF-8" standalone="no"?>
<!-- Generator: Adobe Illustrator 16.0.0, SVG Export Plug-In . SVG Version: 6.00 Build 0)  -->

<svg
   xmlns:dc="http://purl.org/dc/elements/1.1/"
   xmlns:cc="http://creativecommons.org/ns#"
   xmlns:rdf="http://www.w3.org/1999/02/22-rdf-syntax-ns#"
   xmlns:svg="http://www.w3.org/2000/svg"
   xmlns="http://www.w3.org/2000/svg"
   xmlns:sodipodi="http://sodipodi.sourceforge.net/DTD/sodipodi-0.dtd"
   xmlns:inkscape="http://www.inkscape.org/namespaces/inkscape"
   version="1.1"
   id="Layer_1"
   x="0px"
   y="0px"
   width="100"
   height="100"
   viewBox="0 0 100 100"
   enable-background="new 0 0 512 512"
   xml:space="preserve"
   inkscape:version="0.48.4 r9939"
   sodipodi:docname="User.svg"
   inkscape:export-filename="/home/sebastian/Projects/Artivity/Artivity.Explorer/Resources/User.png"
   inkscape:export-xdpi="67.5"
   inkscape:export-ydpi="67.5"><metadata
     id="metadata15"><rdf:RDF><cc:Work
         rdf:about=""><dc:format>image/svg+xml</dc:format><dc:type
           rdf:resource="http://purl.org/dc/dcmitype/StillImage" /><dc:title></dc:title></cc:Work></rdf:RDF></metadata><defs
     id="defs13" /><sodipodi:namedview
     pagecolor="#ffffff"
     bordercolor="#666666"
     borderopacity="1"
     objecttolerance="10"
     gridtolerance="10"
     guidetolerance="10"
     inkscape:pageopacity="0"
     inkscape:pageshadow="2"
     inkscape:window-width="1920"
     inkscape:window-height="1017"
     id="namedview11"
     showgrid="false"
     fit-margin-top="0"
     fit-margin-left="0"
     fit-margin-right="0"
     fit-margin-bottom="0"
     inkscape:zoom="1.3037281"
     inkscape:cx="335.03986"
     inkscape:cy="134.55322"
     inkscape:window-x="0"
     inkscape:window-y="27"
     inkscape:window-maximized="1"
     inkscape:current-layer="Layer_1" /><g
     id="g3766"
     transform="matrix(0.24271845,0,0,0.24271845,-12.135923,-12.135923)"><path
       transform="matrix(0.88055077,0,0,0.88055077,57.429513,53.708818)"
       d="m 459.45163,229.73256 c 0,129.20397 -104.74052,233.94449 -233.94449,233.94449 -129.203972,0 -233.9444874,-104.74052 -233.9444874,-233.94449 0,-129.20397 104.7405154,-233.9444893 233.9444874,-233.9444893 129.20397,0 233.94449,104.7405193 233.94449,233.9444893 z"
       sodipodi:ry="233.94449"
       sodipodi:rx="233.94449"
       sodipodi:cy="229.73256"
       sodipodi:cx="225.50714"
       id="path3760"
       style="opacity:0.1;fill:#31373f;fill-opacity:0.94117647;stroke:none"
       sodipodi:type="arc" /><path
       id="path9"
       d="m 254.75,114.09375 c -41.4275,0 -75,16.53489 -75,75.96875 0,39.446 14.7861,87.82797 36.84375,115.9375 -0.20115,2.21905 -0.47543,4.44721 -0.875,6.65625 -1.31432,6.04279 -3.4193,12.80218 -9.0625,16.15625 -6.33222,3.76183 -13.35922,6.13774 -20.28125,8.5625 -28.69023,9.6526 -58.35253,18.15837 -83.8125,35.0625 -3.694543,2.43272 -7.059005,5.46061 -10.09375,8.84375 C 130.12205,430.35905 189.36216,462 256,462 c 66.43806,0 125.51812,-31.45496 163.1875,-80.28125 -2.94282,-3.11906 -6.19786,-5.90976 -9.75,-8.25 -25.46632,-16.90414 -55.12226,-25.94023 -83.8125,-35.59375 -6.92112,-2.42476 -13.95631,-5.05158 -20.28125,-8.8125 -5.64685,-3.35498 -7.78216,-10.23755 -9.09375,-16.28125 -0.57889,-3.19659 -0.9099,-6.49211 -1.09375,-9.71875 20.8043,-28.45905 34.59375,-74.8853 34.59375,-112.96875 0,-59.43386 -33.58069,-76 -75,-76 z"
       style="fill:#31373f;fill-opacity:0.94117647"
       inkscape:connector-curvature="0" /></g></svg>