<?xml version="1.0" encoding="UTF-8" standalone="no"?>
<svg
   xmlns:dc="http://purl.org/dc/elements/1.1/"
   xmlns:cc="http://creativecommons.org/ns#"
   xmlns:rdf="http://www.w3.org/1999/02/22-rdf-syntax-ns#"
   xmlns:svg="http://www.w3.org/2000/svg"
   xmlns="http://www.w3.org/2000/svg"
   xmlns:sodipodi="http://sodipodi.sourceforge.net/DTD/sodipodi-0.dtd"
   xmlns:inkscape="http://www.inkscape.org/namespaces/inkscape"
   version="1.1"
   x="0px"
   y="0px"
   width="335.28012"
   height="335.28012"
   viewBox="0 0 335.28012 335.28013"
   xml:space="preserve"
   id="svg4210"
   inkscape:version="0.91 r"
   sodipodi:docname="Export.svg"><metadata
     id="metadata4218"><rdf:RDF><cc:Work
         rdf:about=""><dc:format>image/svg+xml</dc:format><dc:type
           rdf:resource="http://purl.org/dc/dcmitype/StillImage" /><dc:identifier>12345</dc:identifier><dc:title></dc:title></cc:Work></rdf:RDF></metadata><defs
     id="defs4216" /><sodipodi:namedview
     pagecolor="#ffffff"
     bordercolor="#666666"
     borderopacity="1"
     objecttolerance="10"
     gridtolerance="10"
     guidetolerance="10"
     inkscape:pageopacity="0"
     inkscape:pageshadow="2"
     inkscape:window-width="1920"
     inkscape:window-height="1017"
     id="namedview4214"
     showgrid="false"
     inkscape:zoom="0.86875"
     inkscape:cx="490.60413"
     inkscape:cy="-85.093694"
     inkscape:window-x="0"
     inkscape:window-y="27"
     inkscape:window-maximized="1"
     inkscape:current-layer="svg4210"
     fit-margin-top="0"
     fit-margin-left="0"
     fit-margin-right="0"
     fit-margin-bottom="0" /><g
     id="g4945"
     transform="translate(0,-70.191755)"><path
       inkscape:export-ydpi="4.29"
       inkscape:export-xdpi="4.29"
       inkscape:connector-curvature="0"
       style="fill:#31373f;fill-opacity:0.94117647"
       id="path4212"
       d="m 335.27927,238.34762 -120.63685,-97.96315 -0.006,57.73877 -67.9449,0.004 c 13.57775,25.43936 13.28442,54.77529 1.38098,79.04793 l 66.56563,-9.4e-4 -0.002,58.10589 120.64399,-96.93248 z M 131.00604,203.802 c 19.3865,33.5784 7.87539,76.51658 -25.70301,95.90308 -33.572338,19.383 -76.499588,7.87482 -95.8860924,-25.70358 -19.383,-33.57234 -7.88525,-76.50165 25.6870944,-95.88465 33.5779,-19.38737 76.519008,-7.88719 95.902008,25.68515 z" /><path
       inkscape:connector-curvature="0"
       inkscape:export-ydpi="4.29"
       inkscape:export-xdpi="4.29"
       id="path4940"
       d="m 214.63299,140.38351 0,8 115.68554,93.94336 4.95117,-3.97852 -120.63671,-97.96484 z M 71.705254,168.71554 c -12.41796,-0.27712 -25.06697,2.73598 -36.60937,9.40039 -23.744618,13.70896 -36.4282141,39.1973 -34.9726601,64.82227 1.311506,-22.8128 13.7049151,-44.54333 34.9726601,-56.82227 33.5779,-19.38737 76.519336,-7.88679 95.902336,25.68555 5.67459,9.82868 8.68166,20.45924 9.2832,31.06641 0.75974,-13.1994 -2.17881,-26.76125 -9.2832,-39.06641 -12.72009,-22.03185 -35.585936,-34.5569 -59.292966,-35.08594 z m 142.921876,29.4082 -67.94532,0.004 c 1.40252,2.62776 2.64882,5.29897 3.75782,8 l 64.1875,-0.004 0,-8 z m -57.79102,44.87305 c -0.55416,11.86391 -3.53964,23.50933 -8.77148,34.17774 l 3.42578,0 c 4.03754,-10.87249 5.8811,-22.50065 5.3457,-34.17774 z"
       style="fill:#31373f;fill-opacity:0.94117647" /></g></svg>