<?xml version="1.0" encoding="UTF-8" standalone="no"?>
<!-- Created with Inkscape (http://www.inkscape.org/) -->

<svg
   xmlns:dc="http://purl.org/dc/elements/1.1/"
   xmlns:cc="http://creativecommons.org/ns#"
   xmlns:rdf="http://www.w3.org/1999/02/22-rdf-syntax-ns#"
   xmlns:svg="http://www.w3.org/2000/svg"
   xmlns="http://www.w3.org/2000/svg"
   xmlns:sodipodi="http://sodipodi.sourceforge.net/DTD/sodipodi-0.dtd"
   xmlns:inkscape="http://www.inkscape.org/namespaces/inkscape"
   width="250"
   height="250"
   viewBox="0 0 249.99999 250"
   id="svg2"
   version="1.1"
   inkscape:version="0.91 r"
   sodipodi:docname="Icon.svg"
   inkscape:export-filename="D:\Projects\Artivity\artivity-explorer\Resources\Icon256.png"
   inkscape:export-xdpi="92.160004"
   inkscape:export-ydpi="92.160004">
  <defs
     id="defs4">
    <clipPath
       clipPathUnits="userSpaceOnUse"
       id="clipPath3814">
      <path
         inkscape:connector-curvature="0"
         id="path3816"
         d="m 283.8622,298.79832 c -42.02984,1.06483 -75.78125,35.49479 -75.78125,77.78125 0,7.20125 1.01225,14.16287 2.84375,20.78125 3.29508,-0.65364 6.79155,-1 10.375,-1 21.47883,0 38.875,12.52671 38.875,28 0,7.95829 -4.60367,15.14971 -12,20.25 11.16801,6.20072 24.00808,9.75 37.6875,9.75 42.95767,0 77.78125,-34.82358 77.78125,-77.78125 0,-42.95767 -34.82358,-77.78125 -77.78125,-77.78125 -0.67121,0 -1.33286,-0.0169 -2,0 z"
         style="fill:#ffffff;fill-opacity:1;stroke:none" />
    </clipPath>
    <filter
       inkscape:collect="always"
       id="filter4048"
       x="-0.43057573"
       width="1.8611515"
       y="-0.43057576"
       height="1.8611515"
       color-interpolation-filters="sRGB">
      <feGaussianBlur
         inkscape:collect="always"
         stdDeviation="25.37192"
         id="feGaussianBlur4050" />
    </filter>
    <filter
       inkscape:collect="always"
       id="filter4052"
       x="-0.43057576"
       width="1.8611515"
       y="-0.43057573"
       height="1.8611515"
       color-interpolation-filters="sRGB">
      <feGaussianBlur
         inkscape:collect="always"
         stdDeviation="25.37192"
         id="feGaussianBlur4054" />
    </filter>
    <filter
       inkscape:collect="always"
       id="filter4060"
       x="-0.43057576"
       width="1.8611515"
       y="-0.43057573"
       height="1.8611515"
       color-interpolation-filters="sRGB">
      <feGaussianBlur
         inkscape:collect="always"
         stdDeviation="25.37192"
         id="feGaussianBlur4062" />
    </filter>
    <filter
       inkscape:collect="always"
       id="filter4056"
       x="-0.43057573"
       width="1.8611515"
       y="-0.43057576"
       height="1.8611515"
       color-interpolation-filters="sRGB">
      <feGaussianBlur
         inkscape:collect="always"
         stdDeviation="25.37192"
         id="feGaussianBlur4058" />
    </filter>
    <clipPath
       clipPathUnits="userSpaceOnUse"
       id="clipPath3088">
      <path
         inkscape:connector-curvature="0"
         id="path3090"
         d="m 283.8622,298.79832 c -42.02984,1.06483 -75.78125,35.49479 -75.78125,77.78125 0,7.20125 1.01225,14.16287 2.84375,20.78125 3.29508,-0.65364 6.79155,-1 10.375,-1 21.47883,0 38.875,12.52671 38.875,28 0,7.95829 -4.60367,15.14971 -12,20.25 11.16801,6.20072 24.00808,9.75 37.6875,9.75 42.95767,0 77.78125,-34.82358 77.78125,-77.78125 0,-42.95767 -34.82358,-77.78125 -77.78125,-77.78125 -0.67121,0 -1.33286,-0.0169 -2,0 z"
         style="fill:#ffffff;fill-opacity:1;stroke:none" />
    </clipPath>
    <filter
       inkscape:collect="always"
       id="filter3920"
       color-interpolation-filters="sRGB">
      <feGaussianBlur
         inkscape:collect="always"
         stdDeviation="5.7504885"
         id="feGaussianBlur3922" />
    </filter>
    <clipPath
       clipPathUnits="userSpaceOnUse"
       id="clipPath3043">
      <path
         style="fill:#252525;fill-opacity:1;fill-rule:evenodd;stroke:#252525;stroke-width:0.5512591px;stroke-linecap:butt;stroke-linejoin:miter;stroke-opacity:1"
         clip-path="none"
         d="m 288.12109,293.0527 c -52.30142,0 -72.55763,51.31992 -72.55763,63.3885 0,15.34603 25.49775,8.42207 25.49775,24.80692 0,14.78682 -26.20951,22.66156 -26.20951,35.52519 0,4.09457 7.96786,30.62661 53.80067,30.62661 52.48376,0 89.57707,-37.44497 89.57707,-84.11327 0,-21.86966 -12.82492,-70.23395 -70.10835,-70.23395 z"
         id="path3045"
         inkscape:connector-curvature="0" />
    </clipPath>
    <clipPath
       clipPathUnits="userSpaceOnUse"
       id="clipPath3824">
      <path
         style="fill:#252525;fill-opacity:1;fill-rule:evenodd;stroke:#252525;stroke-width:0.5512591px;stroke-linecap:butt;stroke-linejoin:miter;stroke-opacity:1"
         clip-path="none"
         d="m 288.12109,293.0527 c -52.30142,0 -72.55763,51.31992 -72.55763,63.3885 0,15.34603 25.49775,8.42207 25.49775,24.80692 0,14.78682 -26.20951,22.66156 -26.20951,35.52519 0,4.09457 7.96786,30.62661 53.80067,30.62661 52.48376,0 89.57707,-37.44497 89.57707,-84.11327 0,-21.86966 -12.82492,-70.23395 -70.10835,-70.23395 z"
         id="path3826"
         inkscape:connector-curvature="0" />
    </clipPath>
    <clipPath
       clipPathUnits="userSpaceOnUse"
       id="clipPath3833">
      <path
         style="fill:#252525;fill-opacity:1;fill-rule:evenodd;stroke:#252525;stroke-width:0.5512591px;stroke-linecap:butt;stroke-linejoin:miter;stroke-opacity:1"
         clip-path="none"
         d="m 288.12109,293.0527 c -52.30142,0 -72.55763,51.31992 -72.55763,63.3885 0,15.34603 25.49775,8.42207 25.49775,24.80692 0,14.78682 -26.20951,22.66156 -26.20951,35.52519 0,4.09457 7.96786,30.62661 53.80067,30.62661 52.48376,0 89.57707,-37.44497 89.57707,-84.11327 0,-21.86966 -12.82492,-70.23395 -70.10835,-70.23395 z"
         id="path3835"
         inkscape:connector-curvature="0" />
    </clipPath>
  </defs>
  <sodipodi:namedview
     id="base"
     pagecolor="#ffffff"
     bordercolor="#666666"
     borderopacity="1.0"
     inkscape:pageopacity="0.0"
     inkscape:pageshadow="2"
     inkscape:zoom="1"
     inkscape:cx="-26.409684"
     inkscape:cy="137.53413"
     inkscape:document-units="px"
     inkscape:current-layer="layer1"
     showgrid="false"
     showguides="true"
     inkscape:guide-bbox="true"
     inkscape:window-width="1920"
     inkscape:window-height="1017"
     inkscape:window-x="0"
     inkscape:window-y="27"
     inkscape:window-maximized="1"
     fit-margin-top="0"
     fit-margin-left="0"
     fit-margin-right="0"
     fit-margin-bottom="0">
    <inkscape:grid
       type="xygrid"
       id="grid4149"
       originx="-294.01132px"
       originy="-366.46728px"
       empspacing="5"
       visible="true"
       enabled="true"
       snapvisiblegridlinesonly="true" />
  </sodipodi:namedview>
  <metadata
     id="metadata7">
    <rdf:RDF>
      <cc:Work
         rdf:about="">
        <dc:format>image/svg+xml</dc:format>
        <dc:type
           rdf:resource="http://purl.org/dc/dcmitype/StillImage" />
        <dc:title />
        <dc:identifier>12345</dc:identifier>
      </cc:Work>
    </rdf:RDF>
  </metadata>
  <g
     inkscape:label="Layer 1"
     inkscape:groupmode="layer"
     id="layer1"
     transform="translate(-294.01133,-435.89491)">
    <g
       transform="matrix(1.4927788,0,0,1.4927788,-7.9334902,2.994548)"
       mask="none"
       id="g3109"
       clip-path="url(#clipPath3043)">
      <path
         inkscape:connector-curvature="0"
         id="path3111"
         d="m 285.7213,236.64009 -70.71068,70.71068 70.71068,70.71067 70.71068,-70.71067 -70.71068,-70.71068 z"
         style="fill:#ea4335;fill-opacity:1;stroke:none;filter:url(#filter4048)" />
      <path
         inkscape:connector-curvature="0"
         style="fill:#4285f4;fill-opacity:1;stroke:none;filter:url(#filter4052)"
         d="m 356.43558,307.35437 -70.71067,70.71068 70.71067,70.71068 70.71068,-70.71068 -70.71068,-70.71068 z"
         id="path3113" />
      <path
         inkscape:connector-curvature="0"
         style="fill:#fbbc05;fill-opacity:1;stroke:none;filter:url(#filter4060)"
         d="m 215.00702,307.35437 -70.71068,70.71068 70.71068,70.71068 70.71067,-70.71068 -70.71067,-70.71068 z"
         id="path3115" />
      <path
         id="path3117"
         d="m 285.7213,378.06866 -70.71068,70.71067 70.71068,70.71068 70.71068,-70.71068 -70.71068,-70.71067 z"
         style="fill:#34a853;fill-opacity:1;stroke:none;filter:url(#filter4056)"
         inkscape:connector-curvature="0" />
    </g>
    <g
       clip-path="url(#clipPath3824)"
       id="g3099"
       mask="none"
       transform="matrix(1.4927788,0,0,1.4927788,-7.9334902,2.994548)">
      <path
         style="fill:#ea4335;fill-opacity:1;stroke:none;filter:url(#filter4048)"
         d="m 285.7213,236.64009 -70.71068,70.71068 70.71068,70.71067 70.71068,-70.71067 -70.71068,-70.71068 z"
         id="path3101"
         inkscape:connector-curvature="0" />
      <path
         id="path3103"
         d="m 356.43558,307.35437 -70.71067,70.71068 70.71067,70.71068 70.71068,-70.71068 -70.71068,-70.71068 z"
         style="fill:#4285f4;fill-opacity:1;stroke:none;filter:url(#filter4052)"
         inkscape:connector-curvature="0" />
      <path
         id="path3105"
         d="m 215.00702,307.35437 -70.71068,70.71068 70.71068,70.71068 70.71067,-70.71068 -70.71067,-70.71068 z"
         style="fill:#fbbc05;fill-opacity:1;stroke:none;filter:url(#filter4060)"
         inkscape:connector-curvature="0" />
      <path
         inkscape:connector-curvature="0"
         style="fill:#34a853;fill-opacity:1;stroke:none;filter:url(#filter4056)"
         d="m 285.7213,378.06866 -70.71068,70.71067 70.71068,70.71068 70.71068,-70.71068 -70.71068,-70.71067 z"
         id="path3107" />
    </g>
    <path
       inkscape:connector-curvature="0"
       style="opacity:0.25;fill:#252525;fill-opacity:1;fill-rule:evenodd;stroke:#252525;stroke-width:0.85181952px;stroke-linecap:butt;stroke-linejoin:miter;stroke-opacity:1;filter:url(#filter3920)"
       d="m 421.45074,443.16603 c -80.81748,0 -112.125,79.29274 -112.125,97.9414 0,23.71309 39.40625,13.02351 39.40625,38.3418 0,22.84897 -40.48827,35.00756 -40.48827,54.88476 0,6.32704 12.29517,47.32425 83.11719,47.32425 81.09923,0 138.42968,-57.84793 138.42968,-129.96096 0,-33.79356 -19.82405,-108.53125 -108.33985,-108.53125 z m 8.87305,72.26172 c 17.76091,0 39.13867,3.96032 39.13867,25.33789 l 0,46.38867 c 0,8.10522 0.86433,16.21003 3.10353,19.83008 l -24.82814,0 c -0.86514,-2.75829 -1.55014,-5.69655 -1.72656,-8.62109 -7.75576,8.10184 -19.13792,11.0332 -29.99805,11.0332 -16.89575,0 -30.3457,-8.45047 -30.3457,-26.73047 0,-20.17315 15.17005,-25.00219 30.3457,-27.06836 14.99586,-2.2426 28.9668,-1.72234 28.9668,-11.7207 0,-10.52424 -7.2438,-12.07813 -15.86132,-12.07813 -9.30965,0 -15.34774,3.7964 -16.21289,13.44531 l -24.48634,0 c 1.38616,-22.92012 21.90706,-29.8164 41.9043,-29.8164 z m 14.65625,47.93358 c -4.13912,3.62345 -12.76009,3.79301 -20.34962,5.17383 -7.58274,1.55048 -14.48046,4.13121 -14.48046,13.10157 0,9.13322 7.0712,11.37891 15,11.37891 19.14176,0 19.83008,-15.17885 19.83008,-20.51561 l 0,-9.1387 z"
       id="path3146"
       inkscape:export-filename="/home/sebastian/Projects/Artivity/artivity-extension-chrome/icon.png"
       inkscape:export-xdpi="7.520556"
       inkscape:export-ydpi="7.520556"
       clip-path="none"
       transform="matrix(0.96605902,0,0,0.96605902,14.216023,17.571594)" />
    <g
       transform="matrix(1.4927788,0,0,1.4927788,-7.9334902,2.994548)"
       mask="none"
       id="g3860"
       clip-path="url(#clipPath3833)">
      <path
         inkscape:connector-curvature="0"
         id="path3862"
         d="m 285.7213,236.64009 -70.71068,70.71068 70.71068,70.71067 70.71068,-70.71067 -70.71068,-70.71068 z"
         style="fill:#ea4335;fill-opacity:1;stroke:none;filter:url(#filter4048)" />
      <path
         inkscape:connector-curvature="0"
         style="fill:#4285f4;fill-opacity:1;stroke:none;filter:url(#filter4052)"
         d="m 356.43558,307.35437 -70.71067,70.71068 70.71067,70.71068 70.71068,-70.71068 -70.71068,-70.71068 z"
         id="path3864" />
      <path
         inkscape:connector-curvature="0"
         style="fill:#fbbc05;fill-opacity:1;stroke:none;filter:url(#filter4060)"
         d="m 215.00702,307.35437 -70.71068,70.71068 70.71068,70.71068 70.71067,-70.71068 -70.71067,-70.71068 z"
         id="path3866" />
      <path
         id="path3868"
         d="m 285.7213,378.06866 -70.71068,70.71067 70.71068,70.71068 70.71068,-70.71068 -70.71068,-70.71067 z"
         style="fill:#34a853;fill-opacity:1;stroke:none;filter:url(#filter4056)"
         inkscape:connector-curvature="0" />
    </g>
    <path
       style="opacity:0.25;fill:#000000;fill-opacity:1;fill-rule:evenodd;stroke:#000000;stroke-width:1.07536554px;stroke-linecap:butt;stroke-linejoin:miter;stroke-opacity:1"
       clip-path="none"
       d="m 434.09004,481.11865 c -25.24518,0 -51.15392,8.70117 -52.90385,37.6363 l 30.89017,0 c 1.09219,-12.18112 8.7223,-16.96395 20.4751,-16.96395 10.87904,0 20.04114,1.94196 20.04114,15.22811 0,12.62227 -17.63985,11.96301 -36.57114,14.79414 -19.15824,2.60838 -38.30696,8.7368 -38.30696,34.20406 0,23.07728 16.9772,33.73064 38.30696,33.73064 13.7102,0 28.08188,-3.69816 37.87301,-13.92622 0.22273,3.69204 1.07763,7.40634 2.16982,10.88849 l 31.32413,0 c -2.82684,-4.57005 -3.90566,-14.81911 -3.90566,-25.05141 l 0,-58.54536 c 0,-26.98776 -26.97074,-31.9948 -49.39272,-31.9948 z m 18.50256,60.51791 0,11.5197 c 0,6.73731 -0.88623,25.91934 -25.05143,25.91934 -10.00958,0 -18.93649,-2.83008 -18.93649,-14.36018 0,-11.32448 8.69312,-14.61206 18.26582,-16.56944 9.58129,-1.74321 20.49673,-1.93507 25.7221,-6.50942 z"
       id="path3937"
       inkscape:connector-curvature="0" />
    <path
       inkscape:connector-curvature="0"
       id="path3956"
       d="m 434.09004,482.06892 c -25.24518,0 -51.15392,8.70116 -52.90385,37.63629 l 30.89017,0 c 1.09219,-12.18112 8.7223,-16.96395 20.4751,-16.96395 10.87904,0 20.04114,1.94196 20.04114,15.22811 0,12.62227 -17.63985,11.96301 -36.57114,14.79414 -19.15824,2.6084 -38.30696,8.7368 -38.30696,34.20406 0,23.07728 16.9772,33.73064 38.30696,33.73064 13.7102,0 28.08188,-3.69816 37.87301,-13.92621 0.22273,3.69203 1.07763,7.40633 2.16982,10.88848 l 31.32413,0 c -2.82684,-4.57005 -3.90566,-14.81911 -3.90566,-25.05141 l 0,-58.54536 c 0,-26.98776 -26.97074,-31.99479 -49.39272,-31.99479 z m 18.50256,60.5179 0,11.51971 c 0,6.7373 -0.88623,25.91934 -25.05143,25.91934 -10.00958,0 -18.93649,-2.83008 -18.93649,-14.36018 0,-11.32449 8.69312,-14.61206 18.26582,-16.56945 9.58129,-1.7432 20.49673,-1.93506 25.7221,-6.50942 z"
       clip-path="none"
       style="fill:#ffffff;fill-opacity:1;fill-rule:evenodd;stroke:#ffffff;stroke-width:1.07536554px;stroke-linecap:butt;stroke-linejoin:miter;stroke-opacity:1" />
  </g>
</svg>
