<?xml version="1.0" encoding="UTF-8" standalone="no"?>
<!-- Generator: Adobe Illustrator 16.0.0, SVG Export Plug-In . SVG Version: 6.00 Build 0)  -->

<svg
   xmlns:dc="http://purl.org/dc/elements/1.1/"
   xmlns:cc="http://creativecommons.org/ns#"
   xmlns:rdf="http://www.w3.org/1999/02/22-rdf-syntax-ns#"
   xmlns:svg="http://www.w3.org/2000/svg"
   xmlns="http://www.w3.org/2000/svg"
   xmlns:sodipodi="http://sodipodi.sourceforge.net/DTD/sodipodi-0.dtd"
   xmlns:inkscape="http://www.inkscape.org/namespaces/inkscape"
   version="1.1"
   id="Layer_1"
   x="0px"
   y="0px"
   width="100"
   height="100"
   viewBox="0 0 100 100"
   enable-background="new 0 0 512 512"
   xml:space="preserve"
   inkscape:version="0.91 r"
   sodipodi:docname="User.svg"
   inkscape:export-filename="/home/sebastian/Projects/Artivity/Artivity.Explorer/Resources/User.png"
   inkscape:export-xdpi="67.5"
   inkscape:export-ydpi="67.5"><metadata
     id="metadata15"><rdf:RDF><cc:Work
         rdf:about=""><dc:format>image/svg+xml</dc:format><dc:type
           rdf:resource="http://purl.org/dc/dcmitype/StillImage" /><dc:title /><dc:identifier>12345</dc:identifier></cc:Work></rdf:RDF></metadata><defs
     id="defs13" /><sodipodi:namedview
     pagecolor="#ffffff"
     bordercolor="#666666"
     borderopacity="1"
     objecttolerance="10"
     gridtolerance="10"
     guidetolerance="10"
     inkscape:pageopacity="0"
     inkscape:pageshadow="2"
     inkscape:window-width="1920"
     inkscape:window-height="1044"
     id="namedview11"
     showgrid="false"
     fit-margin-top="0"
     fit-margin-left="0"
     fit-margin-right="0"
     fit-margin-bottom="0"
     inkscape:zoom="1.3037281"
     inkscape:cx="204.64457"
     inkscape:cy="134.55322"
     inkscape:window-x="1920"
     inkscape:window-y="0"
     inkscape:window-maximized="1"
     inkscape:current-layer="Layer_1" /><circle
     r="50"
     cy="50"
     cx="50"
     style="opacity:0.1;fill:#31373f;fill-opacity:0.94117647;stroke:none"
     id="path3760" /><path
     inkscape:connector-curvature="0"
     style="fill:#31373f;fill-opacity:0.94117647"
     d="m 49.696602,15.556735 c -10.055218,0 -18.203884,4.013323 -18.203884,18.439017 0,9.574272 3.58886,21.317469 8.942658,28.140171 -0.04882,0.538604 -0.115395,1.07942 -0.212378,1.615594 -0.31901,1.466697 -0.829928,3.107326 -2.199636,3.92142 -1.536947,0.913066 -3.242529,1.489743 -4.922634,2.078277 -6.963648,2.342864 -14.163236,4.407371 -20.34284,8.510316 -0.896734,0.590466 -1.713351,1.325391 -2.449939,2.146541 C 19.447099,92.320159 33.825767,100 50,100 c 16.125743,0 30.465564,-7.634698 39.608617,-19.48574 -0.714276,-0.757053 -1.504335,-1.434407 -2.366505,-2.002427 -6.181145,-4.102947 -13.379189,-6.296172 -20.34284,-8.63926 -1.679883,-0.588534 -3.387454,-1.226111 -4.922633,-2.138956 -1.370595,-0.814316 -1.888874,-2.484842 -2.207221,-3.95176 -0.140507,-0.775871 -0.22085,-1.575755 -0.265473,-2.35892 5.049587,-6.907536 8.396541,-18.176044 8.396541,-27.4196 0,-14.425694 -8.150653,-18.446602 -18.203884,-18.446602 z"
     id="path9" /></svg>